<?xml version="1.0" standalone="no"?>
<!DOCTYPE svg PUBLIC "-//W3C//DTD SVG 20010904//EN"
 "http://www.w3.org/TR/2001/REC-SVG-20010904/DTD/svg10.dtd">
<svg version="1.0" xmlns="http://www.w3.org/2000/svg"
 width="720.000000pt" height="720.000000pt" viewBox="0 0 720.000000 720.000000"
 preserveAspectRatio="xMidYMid meet">
<metadata>
Created by potrace 1.11, written by Peter Selinger 2001-2013
</metadata>
<g transform="translate(0.000000,720.000000) scale(0.100000,-0.100000)"
fill="#000000" stroke="none">
<path d="M2125 5283 c-474 -40 -881 -196 -1197 -459 -369 -308 -609 -782 -668
-1319 -16 -147 -13 -469 5 -607 51 -392 218 -748 465 -997 247 -248 544 -398
930 -468 120 -21 449 -24 560 -5 327 58 645 208 992 469 l137 103 3 458 c3
501 1 484 65 544 29 28 137 81 186 92 l27 6 0 -564 0 -565 -31 -35 c-54 -62
-137 -94 -336 -132 -22 -4 -23 -8 -23 -129 l0 -125 620 0 620 0 0 125 c0 141
13 123 -105 146 -95 18 -192 58 -235 98 l-41 36 3 1093 3 1093 842 -1183 c472
-663 863 -1203 890 -1229 90 -86 197 -146 353 -198 94 -32 291 -71 356 -71
l34 0 0 1689 0 1689 45 40 c53 47 127 77 247 100 l88 17 0 128 0 127 -620 0
-620 0 0 -129 0 -128 52 -7 c79 -11 231 -63 275 -95 22 -16 45 -42 51 -57 9
-22 12 -301 10 -1129 l-3 -1100 -889 1254 c-489 689 -907 1276 -929 1303 -71
90 -55 88 -584 88 l-463 0 0 -89 0 -90 -92 39 c-186 77 -460 147 -670 169 -91
10 -260 12 -353 4z m1323 -370 c34 -21 88 -60 122 -88 l60 -50 0 -712 0 -713
-750 0 -750 0 0 -125 c0 -69 2 -125 5 -125 3 0 49 -9 103 -21 139 -30 244 -73
280 -114 41 -46 44 -90 40 -570 l-3 -390 -79 -28 c-240 -83 -532 -73 -743 27
-192 92 -352 255 -461 472 -74 147 -137 378 -162 593 -14 119 -14 499 0 622
38 343 128 623 263 824 54 80 178 208 250 257 182 124 353 154 569 99 207 -53
399 -211 563 -463 l49 -76 110 -23 109 -23 34 39 c77 89 249 411 294 553 13
39 26 72 30 72 3 0 33 -17 67 -37z"/>
</g>
</svg>
