<?xml version="1.0" standalone="no"?>
<!DOCTYPE svg PUBLIC "-//W3C//DTD SVG 20010904//EN"
 "http://www.w3.org/TR/2001/REC-SVG-20010904/DTD/svg10.dtd">
<svg version="1.0" xmlns="http://www.w3.org/2000/svg"
 width="720.000000pt" height="720.000000pt" viewBox="0 0 720.000000 720.000000"
 preserveAspectRatio="xMidYMid meet">
<metadata>
Created by potrace 1.11, written by Peter Selinger 2001-2013
</metadata>
<g transform="translate(0.000000,720.000000) scale(0.100000,-0.100000)"
fill="#000000" stroke="none">
<path d="M1700 5473 c-405 -43 -765 -233 -1018 -537 -232 -279 -361 -591 -414
-1006 -19 -147 -15 -599 6 -743 60 -417 213 -734 481 -1002 228 -228 478 -360
807 -427 102 -21 140 -23 393 -23 307 1 413 12 621 65 226 58 504 194 657 322
l47 39 0 -210 0 -211 745 0 745 0 0 223 0 222 -186 37 c-103 21 -188 39 -190
41 -2 2 -3 435 -2 963 l3 959 720 -1222 720 -1223 362 0 363 0 2 1562 3 1563
190 37 c105 20 191 37 193 37 1 1 2 102 2 226 l0 225 -750 0 -750 0 0 -225 c0
-124 1 -225 3 -226 1 0 88 -17 192 -37 l190 -37 3 -965 c1 -581 -2 -960 -7
-955 -5 6 -332 558 -726 1228 l-718 1217 -553 0 -554 0 0 -206 0 -206 -62 57
c-242 219 -636 385 -1023 430 -117 13 -401 18 -495 8z m1800 -578 l155 -31 3
-1302 c1 -716 1 -1302 -1 -1302 -2 0 -82 -16 -177 -35 -95 -19 -175 -35 -177
-35 -2 0 -3 315 -3 700 l0 700 -630 0 -630 0 0 -260 c0 -143 1 -260 3 -260 1
0 115 -9 252 -20 138 -11 253 -20 258 -20 4 0 7 -137 7 -305 l0 -305 -47 -24
c-144 -72 -313 -101 -553 -93 -200 6 -279 24 -430 98 -94 47 -116 63 -205 153
-171 173 -261 361 -311 651 -21 126 -30 453 -15 611 51 547 300 927 686 1047
257 80 584 55 821 -64 45 -22 91 -51 103 -63 16 -17 33 -78 71 -259 28 -130
50 -239 50 -242 0 -3 124 -5 275 -5 l275 0 0 355 0 355 33 -7 c17 -4 102 -21
187 -38z"/>
</g>
</svg>
